<svg width="24" height="58" viewBox="0 0 24 58" fill="none" xmlns="http://www.w3.org/2000/svg">
<path fill-rule="evenodd" clip-rule="evenodd" d="M16.5462 46.9999C17.2962 46.9999 17.9562 46.5899 18.2962 45.9699L21.8762 39.4799C22.2462 38.8199 21.7662 37.9999 21.0062 37.9999H6.20625L5.26625 35.9999H1.99625V37.9999H3.99625L7.59625 45.5899L6.24625 48.0299C5.51625 49.3699 6.47625 50.9999 7.99625 50.9999H19.9962V48.9999H7.99625L9.09625 46.9999H16.5462ZM6.00625 53.9999C6.00625 52.8999 6.89625 51.9999 7.99625 51.9999C9.09625 51.9999 9.99625 52.8999 9.99625 53.9999C9.99625 55.0999 9.09625 55.9999 7.99625 55.9999C6.89625 55.9999 6.00625 55.0999 6.00625 53.9999ZM16.0062 53.9999C16.0062 52.8999 16.8962 51.9999 17.9962 51.9999C19.0962 51.9999 19.9962 52.8999 19.9962 53.9999C19.9962 55.0999 19.0962 55.9999 17.9962 55.9999C16.8962 55.9999 16.0062 55.0999 16.0062 53.9999ZM19.3062 39.9999H7.15625L9.52625 44.9999H16.5462L19.3062 39.9999Z" fill="white"/>
<path d="M16.59 20.2949L12 24.8749L7.40997 20.2949L5.99997 21.7049L12 27.7049L18 21.7049L16.59 20.2949Z" fill="white" fill-opacity="0.6"/>
<path d="M16.59 14.2949L12 18.8749L7.40997 14.2949L5.99997 15.7049L12 21.7049L18 15.7049L16.59 14.2949Z" fill="white" fill-opacity="0.4"/>
<path d="M16.59 8.29494L12 12.8749L7.40997 8.29494L5.99997 9.70494L12 15.7049L18 9.70494L16.59 8.29494Z" fill="white" fill-opacity="0.2"/>
</svg>
